{"title":"First Aid Kit Interprets Leonard Cohen with Friends 2016","magnet":"magnet:?xt=urn:btih:1991e7eb24c6766bff28e7786d971644b4ba9fb1&dn=First+Aid+Kit+Interprets+Leonard+Cohen+with+Friends+2016&tr=udp%3A%2F%2Ftracker.leechers-paradise.org%3A6969&tr=udp%3A%2F%2Fzer0day.ch%3A1337&tr=udp%3A%2F%2Fopen.demonii.com%3A1337&tr=udp%3A%2F%2Ftracker.coppersurfer.tk%3A6969&tr=udp%3A%2F%2Fexodus.desync.com%3A6969","uploader":"NicoGal","categoryP":"audio","categoryS":"music","size":"55934039","seeders":"22","leechers":"6","description":"When Leonard Cohen passed away in November 2016, the First Aid Kit sisters Klara and Johanna S&#xF6;derberg decided to make a tribute concert for their idol. They invited a number of Swedish artists and actors to interpret the Canadian singer and poet in word and tone. It became a peculiar and refined performance at the Royal Dramatic Theater large scene. We hear actors Maia Hansson Bergqvist and Nina Zanjani, who also directed the performance. And the artists Frida Hyv&#xF6;nen, Annika Norlin, Emil &quot;Loney Dear&quot; The Swan, Maja Francis and Jesper Lindell offer their own versions of songs from Cohen&apos;s rich production.\r\n\r\nOriginal demuxed from 720p video of concert that is/were available on SVT Play for Swedish citizens. Split the AAC audio with m4acut without reencoding and maintain gapless playback.  <a href=\"\nhttp://www.dramaten.se/Repertoar-arkiv/first-aid-kit-leonard-cohen/\" rel=\"nofollow\" target=\"_NEW\">\nhttp://www.dramaten.se/Repertoar-arkiv/first-aid-kit-leonard-cohen/</a>\r\n\r\n1h18m. 21 tracks\r\n\r\n--------------------------------------------------------------------\r\nAnalyzed (foobar2000 1.3.10 Dynamic Range Meter 1.1.1): \r\nFirst Aid Kit Interprets Leonard Cohen with Friends\r\n--------------------------------------------------------------------\r\n\r\nDR         Peak         RMS     Duration Track\r\n--------------------------------------------------------------------\r\nDR15      -9.15 dB   -29.59 dB      2:06 01\r\nDR13      -8.44 dB   -25.10 dB      3:55 02\r\nDR11      -9.68 dB   -24.57 dB      3:40 03\r\nDR14      -5.81 dB   -21.60 dB      3:54 04\r\nDR13     -10.15 dB   -25.76 dB      1:02 05\r\nDR12      -3.57 dB   -21.08 dB      4:59 06\r\nDR10      -8.13 dB   -22.87 dB      3:56 07\r\nDR14      -7.97 dB   -24.50 dB      1:29 08\r\nDR13      -5.99 dB   -25.02 dB      4:55 09\r\nDR12      -4.36 dB   -19.83 dB      4:52 10\r\nDR13      -3.83 dB   -20.47 dB      5:44 11\r\nDR13      -7.23 dB   -24.73 dB      3:38 12\r\nDR11      -5.07 dB   -18.51 dB      5:18 13\r\nDR12      -9.96 dB   -25.55 dB      0:56 14\r\nDR12      -6.71 dB   -23.51 dB      4:31 15\r\nDR12      -5.64 dB   -23.09 dB      5:13 16\r\nDR14     -10.89 dB   -28.45 dB      1:34 17\r\nDR13     -10.26 dB   -25.94 dB      3:08 18\r\nDR12     -11.53 dB   -27.67 dB      2:37 19\r\nDR12      -3.98 dB   -21.25 dB      7:53 20\r\nDR14     -10.85 dB   -29.22 dB      0:56 21\r\nDR15     -12.62 dB   -29.86 dB      1:26 22\r\n-------------------------------------------------------------------\r\n\r\nNumber of tracks:  22\r\nOfficial DR value: DR13\r\n\r\nSamplerate:        48000 Hz\r\nChannels:          2\r\nBitrate:           95 kbps\r\nCodec:             AAC\r\n====================================================================\r\nCompanion files (due to TPB file ext rules): <a href=\"\nhttps://thepiratebay.org/torrent/19477707\" rel=\"nofollow\" target=\"_NEW\">\nhttps://thepiratebay.org/torrent/19477707</a> <a href=\"\nhttps://thepiratebay.org/torrent/19477709\" rel=\"nofollow\" target=\"_NEW\">\nhttps://thepiratebay.org/torrent/19477709</a>\r\n\r\nHope you enjoy it. In a few weeks I will be adding the video of the concert as well.\r\n/Nirrefirre","last_updated":"2017-12-27T12:07:36.403Z","parsed":{"xt":"urn:btih:1991e7eb24c6766bff28e7786d971644b4ba9fb1","dn":"First Aid Kit Interprets Leonard Cohen with Friends 2016","tr":["udp://exodus.desync.com:6969","udp://open.demonii.com:1337","udp://tracker.coppersurfer.tk:6969","udp://tracker.leechers-paradise.org:6969","udp://zer0day.ch:1337"],"infoHash":"1991e7eb24c6766bff28e7786d971644b4ba9fb1","infoHashBuffer":{"type":"Buffer","data":[25,145,231,235,36,198,118,107,255,40,231,120,109,151,22,68,180,186,159,177]},"name":"First Aid Kit Interprets Leonard Cohen with Friends 2016","announce":["udp://exodus.desync.com:6969","udp://open.demonii.com:1337","udp://tracker.coppersurfer.tk:6969","udp://tracker.leechers-paradise.org:6969","udp://zer0day.ch:1337"],"urlList":[]}}